{
	"asset":{
		"version":"2.0",
		"generator":"Created using the official Cinema 4D glTF Exporter 1.000x284978"
	},
	"scenes":[{
		"nodes":[0]
	}],
	"nodes":[{
		"name":"Extrude",
		"children":[1]
	},
	{
		"name":"Extrude",
		"mesh":0
	}],
	"meshes":[{
		"name":"Extrude",
		"primitives":[{
			"attributes":{
				"POSITION":1,
				"NORMAL":2,
				"TEXCOORD_0":3
			},
			"indices":0,
			"material":0
		}]
	}],
	"accessors":[{
		"bufferView":0,
		"type":"SCALAR",
		"min":[0],
		"count":1716,
		"componentType":5123,
		"byteOffset":0,
		"max":[587]
	},
	{
		"bufferView":1,
		"type":"VEC3",
		"min":[-2.586217164993286,
		-3.117765426635742,
		-1.0],
		"count":588,
		"componentType":5126,
		"byteOffset":0,
		"max":[3.1153838634490969,
		2.5885987281799318,
		0.0]
	},
	{
		"bufferView":1,
		"type":"VEC3",
		"min":[-0.9999318718910217,
		-0.9998834133148193,
		-1.0],
		"count":588,
		"componentType":5126,
		"byteOffset":12,
		"max":[0.999928891658783,
		1.0,
		1.0]
	},
	{
		"bufferView":1,
		"type":"VEC2",
		"min":[0.0,
		0.0],
		"count":588,
		"componentType":5126,
		"byteOffset":24,
		"max":[1.0,
		1.0]
	}],
	"bufferViews":[{
		"buffer":0,
		"byteOffset":0,
		"byteLength":3432,
		"target":34963
	},
	{
		"buffer":0,
		"byteOffset":3432,
		"byteLength":18816,
		"target":34962,
		"byteStride":32
	}],
	"buffers":[{
		"uri":"data:application/octet-stream;base64,",
		"byteLength":22248
	}],
	"materials":[{
		"alphaMode":"OPAQUE",
		"pbrMetallicRoughness":{
			"baseColorFactor":[0.15199999999999998,
			0.8,
			0.2276,
			1.0],
			"metallicFactor":0.0,
			"roughnessFactor":0.5
		},
		"emissiveFactor":[0.0,
		0.0,
		0.0],
		"doubleSided":false,
		"name":"Mat"
	}]
}