<?xml version="1.0" encoding="utf-8"?>
<!-- Generator: Adobe Illustrator 26.1.0, SVG Export Plug-In . SVG Version: 6.00 Build 0)  -->
<svg version="1.1" id="Слой_1" xmlns="http://www.w3.org/2000/svg" xmlns:xlink="http://www.w3.org/1999/xlink" x="0px" y="0px"
	 viewBox="0 0 200 200" enable-background="new 0 0 200 200" xml:space="preserve">
<path fill="#FFFFFF" d="M36.5,96c2.7-0.9,4-1.2,6.1-1.8c9.1-2.8,18.2-5.5,27.4-7.9c2.1-0.5,5.3-1.5,5.3-1.5s2.1-3.7,2.9-5.5
	c6.6-13.8,14.4-26.8,23.7-38.9c3.2-4.2,6.6-8.3,10.8-11.5c6-4.6,10.3-3.3,12,4.1c1.7,7,2,14.2,1.4,21.4c-0.3,4.8-0.8,15.6-0.8,15.6
	s15.9-5,23.5-7.1c2.8-0.8,5.7-1.8,8.6-2.1c3.8-0.5,6.9,1.6,7.3,4.6c0.5,3.8-2.1,5.4-5.1,6.2c-9.2,2.3-18.5,4.3-27.8,6.4
	c-2.3,0.5-7.5,2-7.5,2s-1.7,17.7-2.6,26.7c-2.2,21-4.2,42-6.2,63.1c-0.2,1.9-0.4,3.8-1.2,5.5c-2,4.5-6.4,6.7-10.8,5.5
	c-4.2-1.2-6.4-4.8-5.3-10c4-19.4,8.1-38.9,12.2-58.3c1.7-8.1,3.5-16.1,5.2-24.2c0.4-1.9,1.1-6.9,1.1-6.9s-3.5,0.7-4.9,1
	c-8.4,1.9-16.9,4-25.3,5.7c-1.5,0.3-4.2,1.1-4.2,1.1s-5.4,13.3-11.5,33.4c-0.8,2.6-1.6,5.2-3.2,7.5c-1.7,2.5-5.7,3.5-8.4,2.1
	c-3.2-1.6-3.6-4.7-2.4-7.7c1.9-4.9,4.3-9.6,6.5-14.4c2.6-5.7,5.2-11.5,8.4-18.4c-12.3,2.6-23,4.8-34.3,7.2
	C35,99.2,34.9,96.5,36.5,96z M85.5,81.4c0,0,20.7-6.2,30.4-8.9c0.9-0.3,2.6-0.8,2.6-0.8s4.9-19.4,3.1-37.9c-0.1-1.4-0.3-3-1.4-4.2
	c-0.5-0.7-1.5-1-2.3-0.7c-2.8,0.9-4.7,3.1-6.6,5.3C100.3,47.5,85.5,81.4,85.5,81.4z"/>
</svg>
