<?xml version="1.0" encoding="UTF-8"?><svg id="a" xmlns="http://www.w3.org/2000/svg" viewBox="0 0 50 50"><defs><style>.b{fill:#202020;}</style></defs><path class="b" d="M41.87,11.03h0Zm.93,2.93h0Zm-.6,.2c-1.06,.34-2.11,.74-3.25,.74,.44-.4,.91-.77,1.32-1.19,.73-.76,1.34-1.61,1.58-2.67-.23,.11-.45,.21-.68,.32-1.21,.62-2.48,1.05-3.82,1.31-2.58-2.35-5.5-3.12-8.69-1.53-3.36,1.68-4.47,4.61-3.99,8.3-3-.14-5.78-.89-8.41-2.21-2.66-1.33-4.91-3.17-6.87-5.49-.92,1.73-1.22,3.44-.79,5.29,.43,1.84,1.46,3.28,2.9,4.49-1.09,.04-2.05-.3-3.1-.74-.03,1.81,.56,3.29,1.61,4.61,1.07,1.33,2.47,2.15,4.1,2.62-1.01,.38-2.03,.32-3.16,.23,1.29,3.09,3.51,4.75,6.76,5.11-3.08,2.42-6.59,3.37-10.54,3.13,5.47,3.51,13.11,4.36,19.45,1.5,8.7-3.92,12.49-11.08,12.75-20.43,.11-.08,.26-.2,.41-.33,1.15-.94,2.22-1.96,2.99-3.25-.2,.06-.4,.12-.59,.19Z"/></svg>