<?xml version="1.0" encoding="UTF-8"?><svg id="a" xmlns="http://www.w3.org/2000/svg" viewBox="0 0 50 50"><defs><style>.b{fill:#202020;}</style></defs><path class="b" d="M4.44,37.84V12.14h.19c4.51,0,9.01,0,13.52,0,1.92,0,3.41,.85,4.53,2.36,1.23,1.66,1.63,3.54,1.25,5.57-.23,1.23-.75,2.32-1.61,3.24-.49,.53-1.08,.94-1.73,1.25-.05,.03-.1,.05-.17,.09,.32,.12,.62,.23,.91,.36,2.18,1,3.44,2.69,3.75,5.08,.13,.97,.11,1.93-.15,2.88-.41,1.47-1.3,2.59-2.57,3.41-1.36,.88-2.87,1.29-4.47,1.42-.37,.03-.75,.04-1.13,.04-4.04,0-8.07,0-12.11,0h-.21Zm5-4.24c.05,0,.09,0,.12,0,2.46,0,4.93,0,7.39,0,1.33,0,2.53-.9,2.95-2.16,.4-1.19,.21-2.31-.49-3.34-.54-.79-1.3-1.25-2.27-1.25-2.51,0-5.01,0-7.52,0-.06,0-.12,0-.18,0v6.74Zm0-10.71s.09,0,.12,0c2.2,0,4.39,.02,6.59,0,1.27-.02,2.2-.63,2.71-1.8,.33-.77,.34-1.59,.16-2.4-.29-1.36-1.42-2.28-2.78-2.26-2.2,.02-4.39,0-6.59,0h-.22v6.46Zm21.83,6.93c.04,.52,.14,1.01,.33,1.47,.66,1.66,1.87,2.7,3.63,3.02,1.68,.3,3.18-.12,4.47-1.26,.35-.31,.59-.7,.79-1.14l4.06,1.13c-.23,.37-.41,.73-.65,1.05-1.37,1.88-3.22,3.03-5.48,3.51-1.65,.35-3.31,.36-4.96-.03-2.58-.62-4.59-2.05-5.93-4.37-.94-1.64-1.33-3.41-1.24-5.28,.1-2.18,.8-4.15,2.21-5.83,1.07-1.28,2.42-2.16,3.99-2.71,1.6-.56,3.24-.67,4.91-.48,2.15,.25,4,1.13,5.51,2.68,1.27,1.3,2.03,2.87,2.41,4.63,.21,.99,.28,2,.23,3.01,0,.16-.04,.32-.06,.49,0,.09-.05,.12-.14,.11-.05,0-.11,0-.16,0-4.57,0-9.13,0-13.7,0h-.22Zm9.46-3.07c-.17-1.75-.91-3.15-2.49-3.97-1.7-.88-3.42-.81-5.01,.28-1.28,.87-1.89,2.15-2.03,3.69h9.53Zm1.34-10.34v-3.04h-12.28v3.04h12.28Z"/></svg>