<?xml version="1.0" encoding="utf-8"?>
<!-- Generator: Adobe Illustrator 26.1.0, SVG Export Plug-In . SVG Version: 6.00 Build 0)  -->
<svg version="1.1" id="a" xmlns="http://www.w3.org/2000/svg" xmlns:xlink="http://www.w3.org/1999/xlink" x="0px" y="0px"
	 viewBox="0 0 20 20" enable-background="new 0 0 20 20" xml:space="preserve">
<path d="M19,9.2c-1.1-0.5-1.7-1.3-1.7-2.6c0-0.3-0.2-0.5-0.5-0.6c-0.1,0-0.2,0-0.4,0c-1.8,0.1-3.3-1.1-3.5-2.9
	c-0.1-0.5-0.4-0.7-0.9-0.5c-0.8,0.3-1.5,0.1-2.2-0.3C9.3,1.9,8.9,1.5,8.6,1C8.4,0.5,8.2,0.4,7.7,0.6C7.4,0.7,7,0.8,6.7,0.9
	C2.8,2.6,0.9,5.6,0.5,9.7c0,0.9,0.1,1.8,0.3,2.7c1.1,4,4.8,6.9,8.9,7c2.5,0,4.7-0.7,6.5-2.4c2.1-1.9,3.2-4.2,3.2-7.1
	C19.5,9.6,19.4,9.4,19,9.2z M4.4,10.6c-0.3,0-0.6-0.2-0.6-0.5c0-0.3,0.3-0.6,0.6-0.6C4.7,9.5,5,9.7,5,10C5,10.4,4.7,10.6,4.4,10.6z
	 M6.7,15C5.7,15,5,14.3,5,13.3c0-0.9,0.7-1.7,1.7-1.7c0.9,0,1.7,0.8,1.7,1.7C8.3,14.3,7.6,15,6.7,15z M7.2,8.3
	c-0.6,0-1.1-0.5-1.1-1.1c0-0.6,0.5-1.1,1.1-1.1c0.6,0,1.1,0.5,1.1,1.1C8.3,7.8,7.8,8.3,7.2,8.3z M11.7,16.1c-0.6,0-1.1-0.5-1.1-1.1
	c0-0.6,0.5-1.1,1.1-1.1c0.6,0,1.1,0.5,1.1,1.1C12.8,15.6,12.3,16.1,11.7,16.1z M12.2,11.7c-0.9,0-1.6-0.7-1.7-1.7
	c0-0.9,0.7-1.7,1.7-1.7c0.9,0,1.7,0.7,1.7,1.7C13.9,10.9,13.1,11.7,12.2,11.7z M15.6,12.8c-0.3,0-0.6-0.2-0.6-0.5
	c0-0.3,0.2-0.6,0.5-0.6c0.3,0,0.6,0.3,0.6,0.5C16.1,12.5,15.9,12.8,15.6,12.8z"/>
</svg>
