<?xml version="1.0" encoding="utf-8"?>
<!-- Generator: Adobe Illustrator 26.1.0, SVG Export Plug-In . SVG Version: 6.00 Build 0)  -->
<svg version="1.1" id="a" xmlns="http://www.w3.org/2000/svg" xmlns:xlink="http://www.w3.org/1999/xlink" x="0px" y="0px"
	 viewBox="0 0 33.3 29.5" style="enable-background:new 0 0 33.3 29.5;" xml:space="preserve">
<style type="text/css">
	.st0{fill:#FFFFFF;}
</style>
<g>
	<g>
		<path class="st0" d="M19.3,21.5c0.8-0.2,1.5-0.3,2.2-0.5c2.4-0.7,3.7-2.3,4.1-4.7c0.2-1.2,0.3-2.4-0.1-3.6c-0.2-0.7-0.5-1.3-1-1.9
			c-0.1-0.2-0.2-0.3-0.1-0.5c0.3-1.1,0.2-2.2-0.2-3.3c0-0.1-0.2-0.2-0.3-0.2c-0.5,0.1-1,0.1-1.4,0.3c-0.7,0.3-1.3,0.7-2,1
			c-0.1,0.1-0.3,0.1-0.5,0.1c-2.2-0.5-4.4-0.5-6.6,0c-0.2,0-0.4,0-0.5-0.1c-0.9-0.6-1.9-1.1-3-1.3C9.2,6.6,9.2,6.6,9,7.2
			c-0.3,1-0.3,2.1,0,3.1c0,0.1,0,0.3-0.1,0.3c-1.3,1.5-1.5,3.3-1.2,5.2c0.2,1.2,0.5,2.3,1.3,3.3c1,1.2,2.3,1.8,3.8,2.1
			c0.4,0.1,0.8,0.1,1.3,0.2c-0.5,0.5-0.7,1.1-0.8,1.7c0,0.1-0.1,0.2-0.2,0.2c-1.6,0.7-3,0.2-3.9-1.2c-0.5-0.8-1.1-1.3-2-1.5
			c-0.2,0-0.4,0-0.5,0c-0.4,0.1-0.4,0.3-0.1,0.5c0.1,0.1,0.2,0.2,0.3,0.3c0.7,0.4,1.2,1,1.5,1.8c0.6,1.7,2.2,2.4,3.9,2.2
			c0.3,0,0.7-0.1,1.1-0.1c0,0.9,0,1.8,0,2.7c0,0.5-0.5,0.7-1,0.5c-1.2-0.4-2.4-1-3.5-1.8c-4.2-3.1-6.3-7.2-6.2-12.4
			C2.6,7.8,7.6,2.2,14.1,1c7.6-1.4,15,3.7,16.5,11.4c1.3,7-2.6,13.9-9.3,16.3c-0.8,0.3-1.2,0-1.2-0.8c0-1.2,0-2.4,0-3.6
			C20.2,23.2,20,22.2,19.3,21.5z"/>
	</g>
</g>
</svg>
