<?xml version="1.0" encoding="utf-8"?>
<!-- Generator: Adobe Illustrator 26.1.0, SVG Export Plug-In . SVG Version: 6.00 Build 0)  -->
<svg version="1.1" id="Слой_1" xmlns="http://www.w3.org/2000/svg" xmlns:xlink="http://www.w3.org/1999/xlink" x="0px" y="0px"
	 viewBox="0 0 100 100" style="enable-background:new 0 0 100 100;" xml:space="preserve">
<path d="M50,66.3c-8.7,0.1-16.4-7.1-16.4-16.3c0-9.2,7.6-16.4,16.5-16.4c8.8,0,16.4,7.3,16.4,16.4C66.4,59.2,58.8,66.5,50,66.3z
	 M25.7,53.2c1.8-0.1,3-1.4,3-3.1c0-1.7-1.2-3.1-2.9-3.2c-1.9-0.1-3.8-0.1-5.6,0c-1.7,0.1-3,1.5-2.9,3.2c0,1.7,1.3,3,3,3.1
	c0.9,0.1,1.8,0,2.8,0C23.9,53.2,24.8,53.2,25.7,53.2z M79.8,53.2c1.8-0.1,3.1-1.5,3.1-3.2c0-1.7-1.3-3-3-3.1c-1.8-0.1-3.7-0.1-5.5,0
	c-1.8,0.1-3,1.5-3,3.2c0,1.7,1.2,3,3,3.1c0.9,0.1,1.8,0,2.7,0C77.9,53.2,78.8,53.2,79.8,53.2z M46.8,25.5c0.1,1.9,1.4,3.3,3.2,3.3
	c1.8,0,3.2-1.4,3.2-3.3c0-1.7,0-3.3,0-5c0-1.9-1.4-3.3-3.2-3.2c-1.8,0-3.1,1.4-3.1,3.2c0,0.8,0,1.6,0,2.4
	C46.8,23.8,46.8,24.7,46.8,25.5z M53.2,77c0-0.9,0-1.7,0-2.6c-0.1-1.9-1.4-3.3-3.2-3.2c-1.8,0-3.1,1.4-3.2,3.2c0,1.7,0,3.4,0,5.1
	c0,1.8,1.4,3.2,3.2,3.2c1.8,0,3.1-1.3,3.2-3.2C53.2,78.7,53.2,77.9,53.2,77C53.2,77,53.2,77,53.2,77z M73,68.4
	c-1.1-1.1-2.2-2.2-3.2-3.2c-0.3-0.2-0.5-0.5-0.8-0.7C67.7,63.8,66.1,64,65,65c-1.1,1.1-1.4,2.8-0.4,4c1.4,1.6,2.9,3.1,4.5,4.5
	c0.9,0.8,2.1,0.7,3.2,0.2c1.1-0.6,1.7-1.5,1.7-3.1C74.2,69.9,73.7,69.1,73,68.4z M26.2,27.8c-0.6,1.2-0.5,2.5,0.5,3.5
	c1.3,1.3,2.6,2.7,3.9,3.9c1.3,1.2,3.2,1.1,4.4-0.2c1.2-1.3,1.2-3.1,0-4.4c-1.2-1.3-2.4-2.5-3.7-3.7c-0.6-0.6-1.3-0.9-2.1-0.9
	C27.7,25.9,26.8,26.6,26.2,27.8z M72.3,26.3c-1.2-0.5-2.4-0.5-3.4,0.4c-1.4,1.3-2.8,2.7-4.1,4.1c-0.6,0.7-0.9,1.6-0.7,2.6
	c0.6,2.6,3.4,3.5,5.4,1.7c1.3-1.2,2.5-2.4,3.7-3.7c0.6-0.6,0.9-1.3,0.9-1.9C74.1,27.8,73.5,26.8,72.3,26.3z M31.1,73.3
	c1.4-1.3,2.8-2.6,4.1-4c1.1-1.3,0.9-3.1-0.2-4.2c-1.1-1.1-2.9-1.3-4.2-0.3c-1.5,1.3-2.9,2.7-4.2,4.2c-0.9,0.9-0.9,2.2-0.4,3.3
	c0.6,1.2,1.5,1.8,3,2C29.8,73.9,30.6,73.7,31.1,73.3z"/>
</svg>
