<?xml version="1.0" encoding="UTF-8"?><svg id="a" xmlns="http://www.w3.org/2000/svg" viewBox="0 0 50 50"><defs><style>.b{fill:#202020;}</style></defs><path class="b" d="M42.74,12.67c-.14,1.07-.27,2.2-.44,3.33-.85,5.55-1.7,11.1-2.55,16.64-.2,1.32-.38,2.64-.59,3.96-.11,.67-.33,1.31-.7,1.89-.6,.98-1.48,1.36-2.61,1.15-.81-.15-1.54-.5-2.21-.94-1.1-.73-2.18-1.5-3.28-2.24-2.22-1.48-4.44-2.95-6.66-4.43-.17-.11-.33-.24-.48-.38-.7-.69-.84-1.61-.29-2.43,.28-.43,.65-.81,1.03-1.16,2.77-2.61,5.56-5.2,8.34-7.81,.46-.44,.89-.92,1.32-1.39,.07-.07,.13-.15,.19-.24,.14-.23,.2-.47,.03-.7-.14-.2-.42-.28-.7-.17-.21,.08-.4,.19-.59,.31-2.43,1.65-4.86,3.3-7.29,4.95-1.84,1.25-3.65,2.53-5.51,3.76-.65,.43-1.37,.78-2.09,1.09-.97,.42-1.98,.43-3.02,.13-1.58-.46-3.19-.84-4.78-1.28-.49-.13-.97-.31-1.45-.49-.26-.1-.52-.25-.75-.42-.49-.38-.55-.89-.2-1.4,.32-.46,.78-.74,1.27-.96,1.25-.56,2.51-1.11,3.76-1.66,7.55-3.3,15.12-6.57,22.76-9.67,1.21-.49,2.43-.97,3.64-1.44,.64-.25,1.31-.41,2.01-.38,.92,.05,1.5,.54,1.69,1.44,.06,.28,.07,.57,.12,.92Z"/></svg>