<?xml version="1.0" encoding="UTF-8"?><svg id="a" xmlns="http://www.w3.org/2000/svg" viewBox="0 0 50 50"><defs><style>.b{fill:#202020;}</style></defs><path class="b" d="M41.27,17.81c0-1.01-.14-2-.49-2.95-1.39-3.8-4.63-6.06-8.68-6.08-2.36,0-4.72,0-7.08,0-2.34,0-4.68,0-7.02,0-.6,0-1.2,.02-1.79,.12-4.37,.77-7.45,4.44-7.47,8.91-.02,4.79,0,9.58,0,14.37,0,1.01,.14,2,.49,2.95,1.39,3.8,4.63,6.07,8.68,6.08,4.74,0,9.47,0,14.21,0,.56,0,1.13-.02,1.68-.12,4.37-.77,7.45-4.44,7.47-8.91,.02-4.79,0-9.58,0-14.37Zm-16.24,15.54c-4.92-.01-8.41-3.98-8.41-8.37,0-4.33,3.43-8.34,8.37-8.34,4.94,0,8.4,4.01,8.37,8.33,0,4.6-3.7,8.38-8.34,8.37Zm8.68-14.95c-1.18,0-2.09-.94-2.07-2.13,.01-1.14,.96-2.07,2.1-2.06,1.15,0,2.14,.98,2.12,2.12-.02,1.17-.97,2.08-2.15,2.08Zm-3.21,6.7c-.02,2.95-2.52,5.38-5.52,5.36-3.07-.02-5.49-2.48-5.47-5.57,.02-2.95,2.52-5.38,5.52-5.36,3.07,.02,5.49,2.48,5.47,5.57Z"/></svg>