<?xml version="1.0" encoding="utf-8"?>
<!-- Generator: Adobe Illustrator 26.1.0, SVG Export Plug-In . SVG Version: 6.00 Build 0)  -->
<svg version="1.0" id="Слой_1" xmlns="http://www.w3.org/2000/svg" xmlns:xlink="http://www.w3.org/1999/xlink" x="0px" y="0px"
	 viewBox="0 0 100 100" enable-background="new 0 0 100 100" xml:space="preserve">
<g>
	<path fill="#939598" d="M59,18.6c4.5,1.1,8.4,3.3,12,6.2c6.3,5.2,10.1,11.9,11.5,19.9c0.8,4.4,0.7,8.9-0.6,13.2
		c-1.2-0.4-2.3-0.5-3.6-0.5c-3.7,0-7.2,2.5-8.4,6.1c-1.2,3.6,0,7.6,3,10c-3.8,3.8-8.4,6.4-13.5,8c-3.1,0.9-6.3,1.4-9.6,1.4
		c-0.1-0.4-0.3-0.4-0.6-0.4c-1.6,0-3.2-0.5-4.7-0.9c-5.6-1.6-10.5-4.4-14.5-8.7c-0.3-0.3-0.6-0.8-1.1-0.8c0-0.3,0.2-0.6,0.4-0.8
		c0.9-1.7,1.7-3.4,1.4-5.3c-0.6-5.3-4.6-8.7-9.4-8.4c-0.2-1.9-0.6-3.9-0.7-5.8c-0.2-3.1,0.2-6.2,0.9-9.3c1.5-6.2,4.6-11.4,9.1-15.9
		c1.9-1.9,4.1-3.5,6.5-4.8c1.4-0.8,2.7-1.7,4.3-1.8c1.4,4.3,4.7,6.4,8.5,6.6C54.3,26.5,58.2,23.2,59,18.6z M44.4,35.3
		c-3.6,0-6.9,3.1-6.9,6.8c0,3.8,2.9,6.8,6.7,6.8c4.1,0.1,6.9-3,7-6.7C51.3,38.6,48,35.3,44.4,35.3z M50,67.1c-3-0.3-5.7,2.4-5.6,5.6
		c0,3.1,2.4,5.4,5.6,5.5c3.4,0.1,5.7-2.7,5.7-5.7C55.6,69.4,53.2,67.1,50,67.1z M65.8,37.7c0-1.9-1.4-3.5-3.3-3.5
		c-1.8,0-3.4,1.6-3.4,3.3c0,1.8,1.5,3.4,3.3,3.4C64.3,41,65.8,39.6,65.8,37.7z M60.2,57.9c1.8,0,3.4-1.5,3.4-3.3
		c0-1.8-1.7-3.5-3.5-3.5c-1.8,0-3.3,1.6-3.3,3.4C56.9,56.4,58.3,57.9,60.2,57.9z M27.4,45.4c2,0,3.3-1.4,3.3-3.4
		c0-1.9-1.3-3.1-3.3-3.2c-2.1-0.1-3.5,1.7-3.5,3.3C23.8,44,25.4,45.4,27.4,45.4z M42,59c0-1.3-1-2.3-2.2-2.3c-1.2,0-2.2,1.1-2.2,2.3
		c0,1.2,1.1,2.3,2.3,2.3C41.1,61.3,42,60.3,42,59z M73.8,44.4c-1.2,0-2.3,1.1-2.3,2.3c0,1.1,1.2,2.3,2.3,2.3c1.1,0,2.3-1.2,2.3-2.3
		C76.1,45.5,74.9,44.3,73.8,44.4z"/>
	<path fill="#818386" d="M41.3,19.8c-1.6,0.2-2.9,1.1-4.3,1.8c-2.4,1.3-4.6,2.9-6.5,4.8c-4.5,4.4-7.6,9.7-9.1,15.9
		c-0.7,3.1-1,6.2-0.9,9.3c0.1,1.9,0.5,3.9,0.7,5.8c-1.1-0.1-2.1,0.2-3.1,0.5c-1-3.1-1.2-6.3-1-9.5c0.4-6.7,2.6-12.9,6.7-18.2
		c4.3-5.6,9.8-9.4,16.5-11.5c0.2-0.1,0.5-0.1,0.7-0.1C41.1,19,41.2,19.4,41.3,19.8z"/>
	<path fill="#6D6E71" d="M41.3,19.8c-0.1-0.4-0.2-0.8-0.2-1.2c3.6-1.2,7.4-1.6,11.2-1.2c2.3,0.2,4.6,0.4,6.7,1.3
		c-0.8,4.6-4.6,7.9-9.2,7.8C46,26.2,42.7,24.1,41.3,19.8z"/>
	<path fill="#6D6E71" d="M18.2,57.9c1-0.3,2-0.6,3.1-0.5c4.8-0.2,8.7,3.1,9.4,8.4c0.2,1.9-0.5,3.7-1.4,5.3c-0.2,0.3-0.4,0.5-0.4,0.8
		c-0.6,0.5-1.1,1-1.7,1.4c-4.4-4.1-7.3-9.2-8.9-15C18.2,58.3,18.2,58.1,18.2,57.9z"/>
	<path fill="#BBBDBF" d="M72.9,73.5c-3-2.3-4.2-6.3-3-10c1.2-3.5,4.7-6,8.4-6.1c1.2,0,2.4,0.1,3.6,0.5c-0.3,2.3-1.2,4.4-2.2,6.4
		C77.9,67.7,75.8,70.9,72.9,73.5z"/>
	<path fill="#818386" d="M27.1,73.5c0.6-0.5,1.1-1,1.7-1.4c0.5,0,0.8,0.5,1.1,0.8c4,4.2,8.9,7.1,14.5,8.7c1.5,0.4,3.1,0.9,4.7,0.9
		c0.3,0,0.6,0,0.6,0.4c-6,0-11.6-1.6-16.7-4.7C30.9,76.8,28.8,75.3,27.1,73.5z"/>
	<path fill="#A6A8AB" d="M44.4,35.3c3.6,0,6.9,3.3,6.8,6.9c-0.1,3.8-2.9,6.8-7,6.7c-3.7-0.1-6.7-3-6.7-6.8
		C37.5,38.4,40.8,35.3,44.4,35.3z"/>
	<path fill="#A6A8AB" d="M50,67.1c3.2,0,5.6,2.3,5.7,5.4c0,2.9-2.4,5.8-5.7,5.7c-3.2-0.1-5.6-2.4-5.6-5.5
		C44.3,69.5,47.1,66.8,50,67.1z"/>
	<path fill="#F7F9FA" d="M65.8,37.7c0,1.9-1.5,3.2-3.4,3.2c-1.8,0-3.3-1.6-3.3-3.4c0-1.8,1.7-3.4,3.4-3.3
		C64.4,34.2,65.8,35.8,65.8,37.7z"/>
	<path fill="#F7F9FA" d="M60.2,57.9c-1.9,0-3.3-1.5-3.3-3.3c0-1.8,1.5-3.4,3.3-3.4c1.8,0,3.5,1.7,3.5,3.5
		C63.6,56.4,62,57.9,60.2,57.9z"/>
	<path fill="#6D6E71" d="M27.4,45.4c-2,0-3.6-1.5-3.5-3.3c0-1.6,1.4-3.4,3.5-3.3c2,0.1,3.3,1.3,3.3,3.2
		C30.7,44.1,29.4,45.4,27.4,45.4z"/>
	<path fill="#F7F9FA" d="M42,59c0,1.3-0.9,2.3-2.2,2.3c-1.1,0-2.3-1.1-2.3-2.3c0-1.2,1.1-2.3,2.2-2.3C41,56.8,42,57.8,42,59z"/>
	<path fill="#F7F9FA" d="M73.8,44.4c1.1,0,2.3,1.1,2.3,2.3c0,1.1-1.1,2.3-2.3,2.3c-1.1,0-2.3-1.1-2.3-2.3
		C71.5,45.5,72.6,44.4,73.8,44.4z"/>
</g>
</svg>
