<?xml version="1.0" encoding="utf-8"?>
<!-- Generator: Adobe Illustrator 26.1.0, SVG Export Plug-In . SVG Version: 6.00 Build 0)  -->
<svg version="1.0" id="Слой_1" xmlns="http://www.w3.org/2000/svg" xmlns:xlink="http://www.w3.org/1999/xlink" x="0px" y="0px"
	 viewBox="0 0 100 100" enable-background="new 0 0 100 100" xml:space="preserve">
<circle fill="#565656" cx="50" cy="50" r="32.7"/>
<path fill="#FFFFFF" d="M67.2,39.8c-1.7-3-4.1-5.4-7.1-7.1c-3-1.7-6.3-2.6-10.1-2.6c-3.7,0-7.1,0.9-10.1,2.6c-3,1.7-5.4,4.1-7.1,7.1
	c-1.7,3-2.6,6.4-2.6,10.2c0,3.8,0.8,7.2,2.4,10.2c1.6,3,3.8,5.4,6.6,7.1c2.8,1.7,5.9,2.6,9.4,2.6c3.5,0,6.6-0.9,9.4-2.6
	c1.7-1.1,3.2-2.4,4.5-3.9v2.7c0,1.1,0.3,1.9,1,2.6c0.7,0.7,1.6,1,2.6,1c1.1,0,1.9-0.3,2.6-1c0.7-0.7,1-1.6,1-2.6V50
	C69.8,46.3,68.9,42.9,67.2,39.8z M56.6,61.7c-1.9,1.2-4.1,1.8-6.5,1.8c-2.4,0-4.6-0.6-6.5-1.8c-1.9-1.2-3.5-2.8-4.6-4.8
	c-1.1-2-1.7-4.3-1.7-6.9c0-2.6,0.6-4.9,1.7-6.9c1.1-2,2.7-3.6,4.6-4.8c1.9-1.2,4.1-1.8,6.5-1.8c2.4,0,4.6,0.6,6.5,1.8
	c1.9,1.2,3.4,2.8,4.5,4.8c1.1,2,1.7,4.3,1.7,6.9c0,2.5-0.6,4.8-1.7,6.9C60,58.9,58.5,60.5,56.6,61.7z"/>
</svg>
