<?xml version="1.0" encoding="utf-8"?>
<!-- Generator: Adobe Illustrator 26.1.0, SVG Export Plug-In . SVG Version: 6.00 Build 0)  -->
<svg version="1.0" id="Слой_1" xmlns="http://www.w3.org/2000/svg" xmlns:xlink="http://www.w3.org/1999/xlink" x="0px" y="0px"
	 viewBox="0 0 100 100" enable-background="new 0 0 100 100" xml:space="preserve">
<g>
	<path fill="#FBDC66" d="M49.9,82.8c-18.1,0-32.9-14.7-32.8-32.8c0-18.1,14.8-32.8,33-32.8c18.1,0,32.8,14.8,32.8,32.9
		C82.9,68.2,68.1,82.8,49.9,82.8z M49.9,77c14.9,0.3,27.2-12.2,27.3-26.8c0.1-15-12.4-27.3-27-27.4c-14.9-0.1-27.3,12.3-27.4,27
		C22.7,64.8,35.2,77.3,49.9,77z"/>
	<path fill="#FACF09" d="M49.9,77c-14.7,0.2-27.2-12.3-27.1-27.2c0.1-14.7,12.4-27.1,27.4-27c14.6,0.1,27.1,12.4,27,27.4
		C77.1,64.8,64.8,77.3,49.9,77z"/>
</g>
</svg>
